HIERARCHY
ROOT Model
{
	OFFSET 0 0 0
	CHANNELS 6 Xposition Yposition Zposition Zrotation Xrotation Yrotation
	JOINT Model1
	{
		OFFSET 0 -2.25479 2.99384
		CHANNELS 3 Zrotation Xrotation Yrotation
		JOINT Model2
		{
			OFFSET 12.111 0 0
			CHANNELS 3 Zrotation Xrotation Yrotation
			JOINT Model3
			{
				OFFSET 11.5502 0 0
				CHANNELS 3 Zrotation Xrotation Yrotation
				JOINT Model4
				{
					OFFSET 11.781 0 0
					CHANNELS 3 Zrotation Xrotation Yrotation
					JOINT Model5
					{
						OFFSET 20.0601 0 0
						CHANNELS 3 Zrotation Xrotation Yrotation
						JOINT Model6
						{
							OFFSET 11.1962 0 0
							CHANNELS 3 Zrotation Xrotation Yrotation
							End Site
							{
								OFFSET 0 0 0
							}
						}
					}
					JOINT Model7
					{
						OFFSET 10.8223 0.417534 3.51114
						CHANNELS 3 Zrotation Xrotation Yrotation
						JOINT Model8
						{
							OFFSET -6.07943 0 0
							CHANNELS 3 Zrotation Xrotation Yrotation
							JOINT Model9
							{
								OFFSET -0.277416 10.39 -0.051239
								CHANNELS 3 Zrotation Xrotation Yrotation
								JOINT Model10
								{
									OFFSET -3.4391 -0.282043 1.86679
									CHANNELS 3 Zrotation Xrotation Yrotation
									JOINT Model11
									{
										OFFSET 13.0269 0 0
										CHANNELS 3 Zrotation Xrotation Yrotation
										JOINT Model12
										{
											OFFSET 10.8866 0 0
											CHANNELS 3 Zrotation Xrotation Yrotation
											JOINT Model13
											{
												OFFSET 16.7317 0 0
												CHANNELS 3 Zrotation Xrotation Yrotation
												JOINT Model14
												{
													OFFSET 11.8292 0 0
													CHANNELS 3 Zrotation Xrotation Yrotation
													JOINT Model15
													{
														OFFSET 4.82751 -3.73566 -0.836517
														CHANNELS 3 Zrotation Xrotation Yrotation
														JOINT Model16
														{
															OFFSET 3.75311 -0.0582886 -0.0186462
															CHANNELS 3 Zrotation Xrotation Yrotation
															JOINT Model17
															{
																OFFSET 2.88688 0.0192337 0.014801
																CHANNELS 3 Zrotation Xrotation Yrotation
																End Site
																{
																	OFFSET 0 0 0
																}
															}
														}
													}
													JOINT Model18
													{
														OFFSET 9.72197 -3.06458 0.23877
														CHANNELS 3 Zrotation Xrotation Yrotation
														JOINT Model19
														{
															OFFSET 4.61131 0 0
															CHANNELS 3 Zrotation Xrotation Yrotation
															JOINT Model20
															{
																OFFSET 2.8969 -7.62939e-006 0
																CHANNELS 3 Zrotation Xrotation Yrotation
																End Site
																{
																	OFFSET 0 0 0
																}
															}
														}
													}
													JOINT Model21
													{
														OFFSET 9.54431 -0.745064 0.588928
														CHANNELS 3 Zrotation Xrotation Yrotation
														JOINT Model22
														{
															OFFSET 5.33978 0 0
															CHANNELS 3 Zrotation Xrotation Yrotation
															JOINT Model23
															{
																OFFSET 3.03619 7.62939e-006 0
																CHANNELS 3 Zrotation Xrotation Yrotation
																End Site
																{
																	OFFSET 0 0 0
																}
															}
														}
													}
													JOINT Model24
													{
														OFFSET 9.47759 1.51286 0.485107
														CHANNELS 3 Zrotation Xrotation Yrotation
														JOINT Model25
														{
															OFFSET 4.96136 7.62939e-006 0
															CHANNELS 3 Zrotation Xrotation Yrotation
															JOINT Model26
															{
																OFFSET 2.51966 0 0
																CHANNELS 3 Zrotation Xrotation Yrotation
																End Site
																{
																	OFFSET 0 0 0
																}
															}
														}
													}
													JOINT Model27
													{
														OFFSET 9.34247 3.34117 -0.239288
														CHANNELS 3 Zrotation Xrotation Yrotation
														JOINT Model28
														{
															OFFSET 3.2826 2.28882e-005 0
															CHANNELS 3 Zrotation Xrotation Yrotation
															JOINT Model29
															{
																OFFSET 2.1292 0 0
																CHANNELS 3 Zrotation Xrotation Yrotation
																End Site
																{
																	OFFSET 0 0 0
																}
															}
														}
													}
												}
											}
										}
									}
								}
							}
						}
					}
					JOINT Model30
					{
						OFFSET 10.8223 0.4179 -3.51108
						CHANNELS 3 Zrotation Xrotation Yrotation
						JOINT Model31
						{
							OFFSET 6.07943 0 0
							CHANNELS 3 Zrotation Xrotation Yrotation
							JOINT Model32
							{
								OFFSET 0.277416 -10.39 0.051239
								CHANNELS 3 Zrotation Xrotation Yrotation
								JOINT Model33
								{
									OFFSET 3.4391 0.282043 -1.86679
									CHANNELS 3 Zrotation Xrotation Yrotation
									JOINT Model34
									{
										OFFSET -13.0269 0 0
										CHANNELS 3 Zrotation Xrotation Yrotation
										JOINT Model35
										{
											OFFSET -10.8866 0 0
											CHANNELS 3 Zrotation Xrotation Yrotation
											JOINT Model36
											{
												OFFSET -16.7317 0 0
												CHANNELS 3 Zrotation Xrotation Yrotation
												JOINT Model37
												{
													OFFSET -11.8292 0 0
													CHANNELS 3 Zrotation Xrotation Yrotation
													JOINT Model38
													{
														OFFSET -4.82751 3.73566 0.836517
														CHANNELS 3 Zrotation Xrotation Yrotation
														JOINT Model39
														{
															OFFSET -3.75311 0.0582886 0.0186462
															CHANNELS 3 Zrotation Xrotation Yrotation
															JOINT Model40
															{
																OFFSET -2.88688 -0.0192337 -0.014801
																CHANNELS 3 Zrotation Xrotation Yrotation
																End Site
																{
																	OFFSET 0 0 0
																}
															}
														}
													}
													JOINT Model41
													{
														OFFSET -9.72197 3.06459 -0.23877
														CHANNELS 3 Zrotation Xrotation Yrotation
														JOINT Model42
														{
															OFFSET -4.6113 0 0
															CHANNELS 3 Zrotation Xrotation Yrotation
															JOINT Model43
															{
																OFFSET -2.8969 0 0
																CHANNELS 3 Zrotation Xrotation Yrotation
																End Site
																{
																	OFFSET 0 0 0
																}
															}
														}
													}
													JOINT Model44
													{
														OFFSET -9.5443 0.745064 -0.588928
														CHANNELS 3 Zrotation Xrotation Yrotation
														JOINT Model45
														{
															OFFSET -5.33978 0 0
															CHANNELS 3 Zrotation Xrotation Yrotation
															JOINT Model46
															{
																OFFSET -3.03619 -1.52588e-005 0
																CHANNELS 3 Zrotation Xrotation Yrotation
																End Site
																{
																	OFFSET 0 0 0
																}
															}
														}
													}
													JOINT Model47
													{
														OFFSET -9.47759 -1.51286 -0.485107
														CHANNELS 3 Zrotation Xrotation Yrotation
														JOINT Model48
														{
															OFFSET -4.96136 -1.52588e-005 0
															CHANNELS 3 Zrotation Xrotation Yrotation
															JOINT Model49
															{
																OFFSET -2.51966 0 0
																CHANNELS 3 Zrotation Xrotation Yrotation
																End Site
																{
																	OFFSET 0 0 0
																}
															}
														}
													}
													JOINT Model50
													{
														OFFSET -9.34246 -3.34118 0.239288
														CHANNELS 3 Zrotation Xrotation Yrotation
														JOINT Model51
														{
															OFFSET -3.2826 -2.28882e-005 0
															CHANNELS 3 Zrotation Xrotation Yrotation
															JOINT Model52
															{
																OFFSET -2.1292 0 0
																CHANNELS 3 Zrotation Xrotation Yrotation
																End Site
																{
																	OFFSET 0 0 0
																}
															}
														}
													}
												}
											}
										}
									}
								}
							}
						}
					}
				}
			}
		}
	}
	JOINT Model53
	{
		OFFSET 4.38026 -2.14632 -1.11517
		CHANNELS 3 Zrotation Xrotation Yrotation
		JOINT Model54
		{
			OFFSET 0 0 4.94998
			CHANNELS 3 Zrotation Xrotation Yrotation
			JOINT Model55
			{
				OFFSET 18.5642 0 0
				CHANNELS 3 Zrotation Xrotation Yrotation
				JOINT Model56
				{
					OFFSET 21.2884 0 0
					CHANNELS 3 Zrotation Xrotation Yrotation
					JOINT Model57
					{
						OFFSET 30.261 0 0
						CHANNELS 3 Zrotation Xrotation Yrotation
						JOINT Model58
						{
							OFFSET 11.7259 0 0
							CHANNELS 3 Zrotation Xrotation Yrotation
							JOINT Model59
							{
								OFFSET 10.682 0 0
								CHANNELS 3 Zrotation Xrotation Yrotation
								End Site
								{
									OFFSET 0 0 0
								}
							}
						}
					}
				}
			}
		}
	}
	JOINT Model60
	{
		OFFSET -4.38026 -2.14632 -1.11517
		CHANNELS 3 Zrotation Xrotation Yrotation
		JOINT Model61
		{
			OFFSET 0 0 -4.94998
			CHANNELS 3 Zrotation Xrotation Yrotation
			JOINT Model62
			{
				OFFSET -18.5642 0 0
				CHANNELS 3 Zrotation Xrotation Yrotation
				JOINT Model63
				{
					OFFSET -21.2884 0 0
					CHANNELS 3 Zrotation Xrotation Yrotation
					JOINT Model64
					{
						OFFSET -30.261 0 0
						CHANNELS 3 Zrotation Xrotation Yrotation
						JOINT Model65
						{
							OFFSET -11.7259 0 0
							CHANNELS 3 Zrotation Xrotation Yrotation
							JOINT Model66
							{
								OFFSET -10.682 0 0
								CHANNELS 3 Zrotation Xrotation Yrotation
								End Site
								{
									OFFSET 0 0 0
								}
							}
						}
					}
				}
			}
		}
	}
}
MOTION
Frames: 4
Frame Time: 0.033333
-141.348 166.666 21.016 92.0831 12.7529 92.1088 -180 4.29621e-031 -90 0.820729 -0.593553 0.473186 1.64647 -1.18068 0.954902 1.64647 -1.18025 0.95489 45.2706 4.84838 -7.55579 -81.1448 1.08852 5.68251 120.092 75.5343 58.4939 -18.0538 -1.42301 2.90492 -167.277 84.4999 48.8109 157.079 15.8613 26.7037 -9.98103e-006 42.9352 4.37102e-005 1.04838 -7.56068 7.33734 -9.21763e-007 -11.3762 -1.37068e-006 0.54548 0.00813682 1.70925 -72.0648 39.0385 39.3397 33.3638 2.10362 14.835 0.588947 0.308273 6.35287 -99.6409 81.413 100.35 -0.0181409 2.77984e-005 -0.117315 -0.124139 0.00241115 -0.799296 -79.8382 79.5773 80.5374 -0.000225782 -0.000220902 2.21669e-005 -0.000956234 0.000122923 -2.7358e-005 -66.7416 80.4058 67.2171 -0.000437139 1.59654e-005 -2.7347e-005 -0.000136613 -0.000109264 -5.46771e-005 -6.42159 81.2158 8.01779 -0.000218573 1.69184e-005 0.00021212 0.000901574 -0.000184788 -0.000218593 -59.9282 75.5373 58.5147 -20.2831 -6.2817 0.785011 -167.277 84.4999 48.8109 174.169 -7.76395 21.3594 4.68995e-006 3.84959 3.00636e-005 -28.8897 -7.15863 0.29781 4.11873e-006 -11.2158 -9.56525e-007 4.26143 0.10908 2.93119 -72.0648 39.0385 39.3397 33.3638 2.10361 14.835 0.588946 0.308273 6.35287 -99.6409 81.413 100.35 -0.0181409 3.00955e-005 -0.117315 -0.124139 0.00241115 -0.799296 -79.8382 79.5773 80.5374 -0.000260654 -0.000218549 2.35784e-005 -0.000956237 0.00012302 -2.73098e-005 -66.7416 80.4058 67.2171 -0.00043714 1.48984e-005 -2.73119e-005 -0.000136614 -0.00010926 -5.46295e-005 -6.42159 81.2158 8.01779 -0.000218572 1.95971e-005 0.000212309 0.000901575 -0.000191221 -0.00021855 0.000811311 0.56661 89.91 -28.5805 3.97575 2.24836 1.8991e-006 5.09615 -7.407e-008 63.5755 -4.52064 -0.0074334 -2.1786e-007 -6.88993 -2.21694e-007 -81.0373 7.36022 -4.30575 -36.2887 -2.25387 0.090206 -180 -0.566579 -90.09 -25.9553 -25.9273 -25.4461 -1.08964e-005 -27.5965 -2.81383e-006 58.657 19.9207 -0.00736835 5.73547e-007 29.7774 1.88961e-006 -66.6904 22.3322 -13.4529 -35.4947 7.42125e-008 -1.73713e-007 
-141.398 166.71 21.139 92.4384 12.1279 92.1519 -180 4.29621e-031 -90 0.591949 -0.535116 0.418293 1.18787 -1.0663 0.842148 1.18787 -1.06587 0.842139 47.2576 5.09284 -6.4539 -80.4256 1.84798 5.29747 120.092 75.5343 58.4939 -17.9565 -1.4693 2.86477 -167.277 84.4999 48.8109 158.848 15.5244 26.3421 -9.04697e-006 42.0256 4.30793e-005 0.851702 -5.93499 7.43129 -8.62308e-007 -8.92021 -1.3602e-006 0.531187 0.00615381 1.32752 -72.0648 39.0385 39.3397 33.3638 2.10362 14.835 0.588947 0.308273 6.35287 -99.6409 81.413 100.35 -0.0181409 2.77984e-005 -0.117315 -0.124139 0.00241115 -0.799296 -79.8382 79.5773 80.5374 -0.000225782 -0.000220902 2.21669e-005 -0.000956234 0.000122923 -2.7358e-005 -66.7416 80.4058 67.2171 -0.000437139 1.59654e-005 -2.7347e-005 -0.000136613 -0.000109264 -5.46771e-005 -6.42159 81.2158 8.01779 -0.000218573 1.69184e-005 0.00021212 0.000901574 -0.000184788 -0.000218593 -59.9282 75.5373 58.5147 -21.2152 -7.05808 0.491312 -167.277 84.4999 48.8109 176.076 -7.77085 20.6428 4.72289e-006 3.78695 3.00614e-005 -29.602 -6.54269 0.303284 4.13425e-006 -10.3012 -9.53628e-007 6.11622 0.195347 3.65522 -72.0648 39.0385 39.3397 33.3638 2.10361 14.835 0.588946 0.308273 6.35287 -99.6409 81.413 100.35 -0.0181409 3.00955e-005 -0.117315 -0.124139 0.00241115 -0.799296 -79.8382 79.5773 80.5374 -0.000260654 -0.000218549 2.35784e-005 -0.000956237 0.00012302 -2.73098e-005 -66.7416 80.4058 67.2171 -0.00043714 1.48984e-005 -2.73119e-005 -0.000136614 -0.00010926 -5.46295e-005 -6.42159 81.2158 8.01779 -0.000218572 1.95971e-005 0.000212309 0.000901575 -0.000191221 -0.00021855 0.000811311 0.56661 89.91 -27.2253 4.03822 1.78482 1.89943e-006 5.35375 -7.41005e-008 62.052 -4.64562 -0.00744288 -2.18585e-007 -7.07579 -2.21782e-007 -82.0504 2.67511 -2.42382 -35.5117 -0.0483102 0.0025975 -180 -0.566579 -90.09 -25.5522 -26.31 -25.5316 -1.09199e-005 -28.0195 -2.82481e-006 58.4538 20.3619 -0.00740224 5.48223e-007 30.4394 1.90231e-006 -65.9416 22.569 -13.7587 -35.4947 7.67812e-008 -1.6976e-007 
-141.472 166.812 21.224 92.7938 11.3384 92.1586 -180 4.29621e-031 -90 0.37778 -0.472699 0.360973 0.758572 -0.943435 0.725091 0.758572 -0.942998 0.725086 49.0054 5.37178 -5.79518 -79.6097 2.51709 5.04008 120.092 75.5343 58.4939 -18.0318 -1.69107 2.76945 -167.277 84.4999 48.8109 160.699 15.1485 25.5561 -8.13395e-006 41.1106 4.24735e-005 0.770865 -5.26251 7.49234 -8.37961e-007 -7.90434 -1.35664e-006 0.561817 0.00610442 1.24507 -72.0648 39.0385 39.3397 33.3638 2.10362 14.835 0.588947 0.308273 6.35287 -99.6409 81.413 100.35 -0.0181409 2.77984e-005 -0.117315 -0.124139 0.00241115 -0.799296 -79.8382 79.5773 80.5374 -0.000225782 -0.000220902 2.21669e-005 -0.000956234 0.000122923 -2.7358e-005 -66.7416 80.4058 67.2171 -0.000437139 1.59654e-005 -2.7347e-005 -0.000136613 -0.000109264 -5.46771e-005 -6.42159 81.2158 8.01779 -0.000218573 1.69184e-005 0.00021212 0.000901574 -0.000184788 -0.000218593 -59.9282 75.5373 58.5147 -21.6424 -7.16302 0.487079 -167.277 84.4999 48.8109 177.026 -7.83397 20.4463 4.81488e-006 3.61198 3.00555e-005 -28.8559 -6.23812 0.297152 4.14213e-006 -9.83447 -9.5225e-007 6.68343 0.237256 4.06156 -72.0648 39.0385 39.3397 33.3638 2.10361 14.835 0.588946 0.308273 6.35287 -99.6409 81.413 100.35 -0.0181409 3.00955e-005 -0.117315 -0.124139 0.00241115 -0.799296 -79.8382 79.5773 80.5374 -0.000260654 -0.000218549 2.35784e-005 -0.000956237 0.00012302 -2.73098e-005 -66.7416 80.4058 67.2171 -0.00043714 1.48984e-005 -2.73119e-005 -0.000136614 -0.00010926 -5.46295e-005 -6.42159 81.2158 8.01779 -0.000218572 1.95971e-005 0.000212309 0.000901575 -0.000191221 -0.00021855 0.000811311 0.56661 89.91 -26.0917 4.07719 1.23446 1.8998e-006 5.63831 -7.41359e-008 60.7917 -4.52687 -0.00745088 -2.17885e-007 -6.89628 -2.21697e-007 -81.4767 -1.8145 -0.641706 -35.5018 -0.0199182 0.00107482 -180 -0.566579 -90.09 -25.1421 -26.3337 -25.2365 -1.09218e-005 -28.0526 -2.82568e-006 58.1036 20.5582 -0.00742422 5.36833e-007 30.7343 1.90811e-006 -65.4276 22.6188 -13.9051 -35.4947 8.3422e-008 -1.67048e-007 
-141.561 166.972 21.255 93.1117 10.5234 92.0793 -180 4.29621e-031 -90 0.204428 -0.426288 0.287203 0.411011 -0.851981 0.575949 0.411011 -0.851544 0.575946 50.2835 5.64315 -5.6953 -78.7131 3.0367 4.96908 120.092 75.5343 58.4939 -18.2229 -2.0976 2.60278 -167.277 84.4999 48.8109 162.283 14.7812 24.3852 -7.41131e-006 40.3679 4.20019e-005 0.835617 -5.46686 7.84523 -8.45536e-007 -8.22098 -1.3577e-006 0.568455 0.0059103 1.19141 -72.0648 39.0385 39.3397 33.3638 2.10362 14.835 0.588947 0.308273 6.35287 -99.6409 81.413 100.35 -0.0181409 2.77984e-005 -0.117315 -0.124139 0.00241115 -0.799296 -79.8382 79.5773 80.5374 -0.000225782 -0.000220902 2.21669e-005 -0.000956234 0.000122923 -2.7358e-005 -66.7416 80.4058 67.2171 -0.000437139 1.59654e-005 -2.7347e-005 -0.000136613 -0.000109264 -5.46771e-005 -6.42159 81.2158 8.01779 -0.000218573 1.69184e-005 0.00021212 0.000901574 -0.000184788 -0.000218593 -59.9282 75.5373 58.5147 -21.5529 -6.58626 0.787419 -167.277 84.4999 48.8109 177.203 -7.82769 20.9458 4.93497e-006 3.38343 3.00481e-005 -26.8341 -6.12101 0.282387 4.14556e-006 -9.63102 -9.5167e-007 5.86578 0.197599 3.85535 -72.0648 39.0385 39.3397 33.3638 2.10361 14.835 0.588946 0.308273 6.35287 -99.6409 81.413 100.35 -0.0181409 3.00955e-005 -0.117315 -0.124139 0.00241115 -0.799296 -79.8382 79.5773 80.5374 -0.000260654 -0.000218549 2.35784e-005 -0.000956237 0.00012302 -2.73098e-005 -66.7416 80.4058 67.2171 -0.00043714 1.48984e-005 -2.73119e-005 -0.000136614 -0.00010926 -5.46295e-005 -6.42159 81.2158 8.01779 -0.000218572 1.95971e-005 0.000212309 0.000901575 -0.000191221 -0.00021855 0.000811311 0.56661 89.91 -25.1353 3.88639 0.775301 1.89969e-006 5.55404 -7.41252e-008 59.8193 -4.44678 -0.00746031 -2.17413e-007 -6.77501 -2.21641e-007 -81.1247 -3.60038 0.0890441 -35.4954 -0.00198219 0.000107228 -180 -0.566579 -90.09 -24.8166 -26.0096 -24.6919 -1.09015e-005 -27.6877 -2.81618e-006 57.6368 20.515 -0.00743411 5.39322e-007 30.67 1.90684e-006 -65.1665 22.4772 -13.8805 -35.4947 9.37134e-008 -1.65448e-007 
